HIERARCHY
ROOT joint_Root
{
	OFFSET 0.0 0.0 0.0
	CHANNELS 6 Xposition Yposition Zposition Zrotation Xrotation Yrotation 
	JOINT Hips
	{
		OFFSET -17.1583 93.1646 452.98
		CHANNELS 6 Xposition Yposition Zposition Zrotation Xrotation Yrotation 
		JOINT Spine
		{
			OFFSET 15.7357 0.0 0.0
			CHANNELS 6 Xposition Yposition Zposition Zrotation Xrotation Yrotation 
			JOINT Chest
			{
				OFFSET 8.98455 -0.406207 0.0
				CHANNELS 6 Xposition Yposition Zposition Zrotation Xrotation Yrotation 
				JOINT Neck
				{
					OFFSET 16.3773 0.0 0.0
					CHANNELS 6 Xposition Yposition Zposition Zrotation Xrotation Yrotation 
					JOINT Head
					{
						OFFSET 6.45672 0.0 0.0
						CHANNELS 6 Xposition Yposition Zposition Zrotation Xrotation Yrotation 
						End Site
						{
							OFFSET 0.0 0.0 0.0
						}
					}
				}
				JOINT Shoulder_L
				{
					OFFSET 12.9942 -0.242716 4.98039
					CHANNELS 6 Xposition Yposition Zposition Zrotation Xrotation Yrotation 
					JOINT UpperArm_L
					{
						OFFSET 5.34809 0.0 0.0
						CHANNELS 6 Xposition Yposition Zposition Zrotation Xrotation Yrotation 
						JOINT LowerArm_L
						{
							OFFSET 24.3286 1.87007e-05 0.0
							CHANNELS 6 Xposition Yposition Zposition Zrotation Xrotation Yrotation 
							JOINT Hand_L
							{
								OFFSET 22.2916 0.0 0.0
								CHANNELS 6 Xposition Yposition Zposition Zrotation Xrotation Yrotation 
								End Site
								{
									OFFSET 0.0 0.0 0.0
								}
							}
						}
					}
				}
				JOINT Shoulder_R
				{
					OFFSET 12.9945 -0.242716 -4.98039
					CHANNELS 6 Xposition Yposition Zposition Zrotation Xrotation Yrotation 
					JOINT UpperArm_R
					{
						OFFSET -5.34813 0.0 0.0
						CHANNELS 6 Xposition Yposition Zposition Zrotation Xrotation Yrotation 
						JOINT LowerArm_R
						{
							OFFSET -24.3289 0.000322201 0.0
							CHANNELS 6 Xposition Yposition Zposition Zrotation Xrotation Yrotation 
							JOINT Hand_R
							{
								OFFSET -22.2915 -0.000108084 0.0
								CHANNELS 6 Xposition Yposition Zposition Zrotation Xrotation Yrotation 
								End Site
								{
									OFFSET 0.0 0.0 0.0
								}
							}
						}
					}
				}
			}
		}
		JOINT UpperLeg_L
		{
			OFFSET -2.19248 -6.46944 0.0
			CHANNELS 6 Xposition Yposition Zposition Zrotation Xrotation Yrotation 
			JOINT LowerLeg_L
			{
				OFFSET 39.0811 0.0 -1.23785e-05
				CHANNELS 6 Xposition Yposition Zposition Zrotation Xrotation Yrotation 
				JOINT Foot_L
				{
					OFFSET 40.9854 0.0 -1.26872e-05
					CHANNELS 6 Xposition Yposition Zposition Zrotation Xrotation Yrotation 
					JOINT Toes_L
					{
						OFFSET 11.7543 0.0 0.0
						CHANNELS 6 Xposition Yposition Zposition Zrotation Xrotation Yrotation 
						End Site
						{
							OFFSET 0.0 0.0 0.0
						}
					}
				}
			}
		}
		JOINT UpperLeg_R
		{
			OFFSET -2.19251 6.46944 0.0
			CHANNELS 6 Xposition Yposition Zposition Zrotation Xrotation Yrotation 
			JOINT LowerLeg_R
			{
				OFFSET -39.0811 -0.00228153 -0.0401928
				CHANNELS 6 Xposition Yposition Zposition Zrotation Xrotation Yrotation 
				JOINT Foot_R
				{
					OFFSET -40.9854 0.0 0.0
					CHANNELS 6 Xposition Yposition Zposition Zrotation Xrotation Yrotation 
					JOINT Toes_R
					{
						OFFSET -11.7543 0.0 0.0
						CHANNELS 6 Xposition Yposition Zposition Zrotation Xrotation Yrotation 
						End Site
						{
							OFFSET 0.0 0.0 0.0
						}
					}
				}
			}
		}
	}
}
MOTION
Frames:	4
Frame Time:	0.0333333
0.000000 0.000000 0.000000 0.000000 0.000000 -0.000000 0.261471 92.886200 0.199253 86.503000 -4.294670 -0.381456 15.735700 0.000005 -0.000001 85.852900 87.495000 -83.516300 8.984550 -0.406207 -0.000000 -2.753210 -0.576531 4.659630 16.377300 -0.000001 -0.000001 3.724900 3.985410 -0.618087 6.456720 -0.000001 -0.000000 2.528900 5.728980 -5.887500 12.994200 -0.242716 4.980390 -92.701200 8.251460 -71.802400 5.348090 -0.000007 -0.000001 -74.743800 17.431400 3.655790 24.328600 0.000019 0.000005 15.993300 27.465000 -31.859000 22.291600 -0.000001 0.000005 -1.966180 5.050670 6.222320 12.994500 -0.242716 -4.980390 88.785100 3.825470 -72.366700 -5.348130 -0.000001 -0.000004 -71.033600 24.760500 -3.551120 -24.328900 0.000322 -0.000009 3.308050 7.930130 -22.737700 -22.291500 -0.000108 -0.000004 2.920460 5.273440 0.805045 -2.192480 -6.469440 -0.000000 -176.686000 -4.137590 -3.043420 39.081100 -0.000007 -0.000012 0.205887 -0.581439 19.499400 40.985400 -0.000006 -0.000013 3.323830 8.664160 -72.053200 11.754300 -0.000000 0.000003 -0.000889 0.181447 -9.216550 -2.192510 6.469440 -0.000001 -176.063000 6.470900 -178.896000 -39.081100 -0.002282 -0.040193 0.010734 -0.034203 12.207100 -40.985400 0.000008 0.000006 -2.863560 4.668260 -68.232000 -11.754300 -0.000006 -0.000006 -0.010910 0.277986 -5.277630
0.000000 0.000000 0.000000 0.000000 0.000000 -0.000000 0.215995 92.914900 0.151516 86.494400 -4.329130 -0.611533 15.735700 0.000005 -0.000001 85.758700 87.523800 -83.410300 8.984550 -0.406207 -0.000000 -2.810990 -0.582759 4.682990 16.377300 -0.000001 -0.000001 3.603400 3.933430 -0.468177 6.456720 -0.000001 -0.000000 2.366550 5.689700 -5.826810 12.994200 -0.242716 4.980390 -92.718700 8.282880 -71.756400 5.348090 -0.000007 -0.000001 -74.379000 16.627700 3.797500 24.328600 0.000019 0.000005 16.366600 27.030000 -32.871900 22.291600 -0.000001 0.000005 -2.053130 5.046010 6.324980 12.994500 -0.242716 -4.980390 88.810500 3.728450 -72.291000 -5.348130 -0.000001 -0.000004 -70.746400 24.552800 -3.684260 -24.328900 0.000322 -0.000009 3.395370 7.904870 -23.341900 -22.291500 -0.000108 -0.000004 2.582750 5.273740 0.796795 -2.192480 -6.469440 -0.000000 -176.660000 -4.233780 -3.212580 39.081100 -0.000007 -0.000012 0.204969 -0.584249 19.332500 40.985400 -0.000006 -0.000013 3.278210 8.700610 -72.015900 11.754300 -0.000000 0.000003 -0.000879 0.181293 -9.222780 -2.192510 6.469440 -0.000001 -176.005000 6.351210 -179.056000 -39.081100 -0.002282 -0.040193 0.008909 -0.026254 11.985600 -40.985400 0.000008 0.000006 -3.144190 4.608590 -68.039300 -11.754300 -0.000006 -0.000006 -0.011070 0.279135 -5.230620
0.000000 0.000000 0.000000 0.000000 0.000000 -0.000000 0.145621 92.931100 0.080745 86.449100 -4.233270 -0.793442 15.735700 0.000005 -0.000001 85.338600 87.524100 -82.968800 8.984550 -0.406207 -0.000000 -2.813520 -0.620902 4.724620 16.377300 -0.000001 -0.000001 3.505830 3.825040 -0.301502 6.456720 -0.000001 -0.000000 2.001250 5.596240 -5.589270 12.994200 -0.242716 4.980390 -92.724100 8.260320 -71.676400 5.348090 -0.000007 -0.000001 -74.045500 15.467400 3.883600 24.328600 0.000019 0.000005 17.155000 26.856100 -34.345300 22.291600 -0.000001 0.000005 -2.083450 5.041340 6.427360 12.994500 -0.242716 -4.980390 88.809300 3.715620 -72.217000 -5.348130 -0.000001 -0.000004 -70.359600 23.921200 -3.638590 -24.328900 0.000322 -0.000009 3.585000 7.923610 -24.447100 -22.291500 -0.000108 -0.000004 2.209520 5.267690 0.961019 -2.192480 -6.469440 -0.000000 -176.562000 -4.086840 -3.458750 39.081100 -0.000007 -0.000012 0.202731 -0.577935 19.330500 40.985400 -0.000006 -0.000013 3.219360 8.752740 -71.938400 11.754300 -0.000000 0.000003 -0.000836 0.180677 -9.247810 -2.192510 6.469440 -0.000001 -175.890000 6.310880 -179.215000 -39.081100 -0.002282 -0.040193 0.007700 -0.020847 11.823000 -40.985400 0.000008 0.000006 -3.297170 4.504960 -67.832000 -11.754300 -0.000006 -0.000006 -0.010670 0.276246 -5.348850
0.000000 0.000000 0.000000 0.000000 0.000000 -0.000000 0.091689 92.938200 0.008399 86.391500 -4.181410 -0.928589 15.735700 0.000005 -0.000001 85.596900 87.497900 -83.190900 8.984550 -0.406207 -0.000000 -2.759430 -0.604892 4.797770 16.377300 -0.000001 -0.000001 3.344120 3.675910 -0.001570 6.456720 -0.000001 -0.000000 1.527550 5.551400 -5.323490 12.994200 -0.242716 4.980390 -92.752400 8.297490 -71.575400 5.348090 -0.000007 -0.000001 -73.661000 13.870300 4.048540 24.328600 0.000019 0.000005 18.330800 26.569300 -36.528500 22.291600 -0.000001 0.000005 -2.135830 5.027720 6.724210 12.994500 -0.242716 -4.980390 88.818900 3.664290 -72.121100 -5.348130 -0.000001 -0.000004 -69.950700 22.751000 -3.417150 -24.328900 0.000322 -0.000009 4.076860 8.278680 -26.340800 -22.291500 -0.000108 -0.000004 1.594600 5.250460 1.421500 -2.192480 -6.469440 -0.000000 -176.479000 -4.037370 -3.686860 39.081100 -0.000007 -0.000012 0.205460 -0.583027 19.413000 40.985400 -0.000006 -0.000013 3.168740 8.715970 -71.952800 11.754300 -0.000000 0.000003 -0.000658 0.178049 -9.354610 -2.192510 6.469440 -0.000001 -175.743000 6.258500 -179.343000 -39.081100 -0.002282 -0.040193 0.007800 -0.021523 11.717300 -40.985400 0.000008 0.000006 -3.133720 4.377830 -67.828800 -11.754300 -0.000006 -0.000006 -0.011078 0.279190 -5.228360
